<svg width="556" height="556" viewBox="0 0 556 556" fill="none" xmlns="http://www.w3.org/2000/svg">
<g clip-path="url(#clip0_1629_5113)">
<path d="M526.48 286.139C520.56 296.769 512.72 306.769 503.04 316.069C493.35 325.369 481.82 333.969 468.51 341.809C444.48 355.959 415.29 367.289 381.72 375.519C343.95 384.769 302.17 389.449 261.81 389.449C229.71 389.449 198.51 386.489 170.92 380.499H170.63L170 380.299C88.4701 362.329 33.9101 308.059 16.0101 262.199C5.64009 235.659 6.81009 211.199 19.3101 193.319C33.9701 172.339 62.1001 163.199 100.93 166.749C103.3 166.959 105.71 167.219 108.16 167.529L110.19 167.789C111.06 167.909 111.93 168.029 112.8 168.159C142.02 172.459 166.02 181.579 167.08 181.989C182.02 187.999 197.16 192.799 212.17 196.269L213.11 196.489C213.42 196.569 213.73 196.629 214.04 196.699L214.47 196.799C219.74 197.979 225.06 199.009 230.33 199.869L230.7 199.929C265.08 205.549 299.5 204.969 339.03 198.089L340.66 197.809C347.01 196.679 353.43 195.399 360.17 193.939L361.01 193.759L363.33 193.239C378.92 189.769 393.83 185.829 408.25 182.029C413.54 180.629 418.61 179.289 423.62 177.999C425.28 177.579 426.92 177.159 428.57 176.739L432.63 175.719C433.45 175.519 434.26 175.319 435.06 175.119C438.16 174.359 441.14 173.659 444.06 172.989C487.2 163.129 521.11 169.709 537.11 191.029C548.19 205.809 555.35 234.289 526.48 286.139Z" stroke="black" stroke-width="18" stroke-miterlimit="10"/>
<path d="M521.37 283.28C497.63 325.92 443.24 354.41 380.33 369.83C311.27 386.74 231.92 387.88 171.55 374.65C171.54 374.65 171.52 374.64 171.51 374.64C56.1401 349.33 -10.7999 246.55 24.0901 196.65C41.4901 171.75 76.6001 169.4 107.41 173.3C110.19 202.87 120.38 261.61 157.08 261C191 260.41 205.28 224.15 210.83 201.95C217.21 203.43 223.51 204.67 229.74 205.68C236.26 229.23 252.86 272.04 287.17 272.04C318.35 272.04 333.4 231.49 340.02 203.83C348.38 202.37 356.56 200.71 364.58 198.93C366.02 218.2 372.7 267.55 403.34 265.47C434.37 263.44 433.3 211.64 429.99 182.38C435.19 181.06 440.32 179.81 445.35 178.66C518.78 161.88 571.17 193.8 521.36 283.27L521.37 283.28Z" fill="black"/>
<path d="M403.35 265.471C372.71 267.541 366.03 218.201 364.59 198.931C387.81 193.761 409.57 187.561 430 182.391C433.31 211.651 434.39 263.441 403.35 265.471Z" fill="white"/>
<path d="M340.03 203.83C333.41 231.49 318.36 272.04 287.18 272.04C252.87 272.04 236.27 229.23 229.75 205.68C269.57 212.19 306.24 209.71 340.03 203.83Z" fill="white"/>
<path d="M210.84 201.951C205.28 224.161 191.01 260.411 157.09 261.001C120.39 261.611 110.2 202.881 107.42 173.311C138.37 177.221 164.98 187.431 164.98 187.431C180.71 193.761 195.99 198.521 210.84 201.961V201.951Z" fill="white"/>
<path d="M380.33 369.82C311.27 386.73 231.92 387.87 171.55 374.64C175.98 363.15 200.33 310.85 275.15 314.13C275.15 314.13 281.47 313.98 275.15 318.79C270.38 322.42 249.54 333.92 250.41 341.05C251.28 348.18 264.9 339.55 272.53 333.42C280.17 327.29 303.55 314.04 326.06 319.43C345.79 324.15 369.62 341.97 380.34 369.83L380.33 369.82Z" fill="#EBCAE7"/>
</g>
<defs>
<clipPath id="clip0_1629_5113">
<rect width="555.8" height="241.45" fill="white" transform="translate(0 157)"/>
</clipPath>
</defs>
</svg>
