<?xml version="1.0" standalone="no"?>
<!DOCTYPE svg PUBLIC "-//W3C//DTD SVG 20010904//EN"
 "http://www.w3.org/TR/2001/REC-SVG-20010904/DTD/svg10.dtd">
<svg version="1.0" xmlns="http://www.w3.org/2000/svg"
 width="556.000000pt" height="556.000000pt" viewBox="0 0 556.000000 556.000000"
 preserveAspectRatio="xMidYMid meet">
<metadata>
Created by potrace 1.14, written by Peter Selinger 2001-2017
</metadata>
<g transform="translate(0.000000,556.000000) scale(0.100000,-0.100000)"
fill="#000000" stroke="none">
<path d="M675 3979 c-607 -83 -842 -597 -544 -1191 185 -370 542 -703 984
-919 293 -143 547 -212 965 -265 172 -21 709 -30 910 -15 632 48 1167 182
1601 402 397 201 646 440 812 781 104 213 149 381 151 558 0 93 -4 130 -23
190 -41 136 -117 240 -229 313 -138 91 -280 127 -502 127 -184 0 -298 -20
-720 -129 -622 -161 -847 -201 -1201 -217 -339 -14 -727 45 -1045 161 -286
105 -451 151 -658 186 -140 23 -398 32 -501 18z m570 -180 c136 -27 316 -79
460 -134 66 -25 183 -63 259 -86 77 -22 141 -41 143 -43 6 -5 -68 -208 -94
-260 -107 -211 -264 -326 -444 -326 -198 0 -348 176 -433 510 -32 125 -68 345
-59 362 4 8 13 7 168 -23z m3067 -309 c1 -149 -3 -214 -16 -275 -19 -91 -60
-185 -100 -232 -67 -79 -197 -101 -293 -49 -63 34 -81 53 -128 131 -61 103
-133 377 -123 474 l3 33 270 69 c149 38 293 75 320 82 50 13 50 13 58 -12 5
-14 9 -114 9 -221z m-918 3 c-18 -81 -81 -250 -125 -340 -62 -127 -157 -233
-246 -278 -52 -27 -68 -30 -153 -30 -86 0 -101 3 -163 32 -120 57 -234 187
-311 355 -42 89 -101 257 -94 264 3 3 70 -2 149 -12 190 -22 613 -14 794 14
166 27 157 27 149 -5z m-617 -1090 c2 -6 -37 -40 -88 -74 -155 -104 -202 -157
-175 -195 19 -25 67 -5 204 86 133 89 204 121 314 144 95 20 145 20 223 2 173
-41 350 -171 461 -338 47 -70 89 -156 81 -165 -9 -8 -165 -41 -322 -68 -444
-74 -865 -90 -1306 -50 -151 14 -435 58 -447 69 -8 9 28 84 79 161 188 288
500 447 868 441 70 -1 106 -5 108 -13z"/>
</g>
</svg>
